HIERARCHY
ROOT pelvis
{
	OFFSET 0.003123 -0.351407 0.012037
	CHANNELS 6 Xposition Yposition Zposition Zrotation Yrotation Xrotation 
	JOINT left_hip
	{
		OFFSET 0.058189 -0.092763 -0.026001
		CHANNELS 3 Zrotation Yrotation Xrotation
		JOINT left_knee
		{
			OFFSET 0.054695 -0.378753 -0.009396
			CHANNELS 3 Zrotation Yrotation Xrotation
			JOINT left_ankle
			{
				OFFSET -0.043453 -0.403059 -0.031876
				CHANNELS 3 Zrotation Yrotation Xrotation
				JOINT left_foot
				{
					OFFSET 0.047257 -0.057997 0.118216
					CHANNELS 3 Zrotation Yrotation Xrotation
					End Site
					{
						OFFSET 0.000000 0.000000 0.000000
					}
				}
			}
		}
	}
	JOINT right_hip
	{
		OFFSET -0.063267 -0.103908 -0.021250
		CHANNELS 3 Zrotation Yrotation Xrotation
		JOINT right_knee
		{
			OFFSET -0.044210 -0.362380 -0.016824
			CHANNELS 3 Zrotation Yrotation Xrotation
			JOINT right_ankle
			{
				OFFSET 0.015417 -0.410728 -0.020192
				CHANNELS 3 Zrotation Yrotation Xrotation
				JOINT right_foot
				{
					OFFSET -0.038812 -0.058328 0.119049
					CHANNELS 3 Zrotation Yrotation Xrotation
					End Site
					{
						OFFSET 0.000000 0.000000 0.000000
					}
				}
			}
		}
	}
	JOINT spine_1
	{
		OFFSET -0.002763 0.109891 -0.027618
		CHANNELS 3 Zrotation Yrotation Xrotation
		JOINT spine_2
		{
			OFFSET 0.009448 0.131853 -0.005940
			CHANNELS 3 Zrotation Yrotation Xrotation
			JOINT spine_3
			{
				OFFSET -0.011330 0.052235 0.028447
				CHANNELS 3 Zrotation Yrotation Xrotation
				JOINT neck
				{
					OFFSET -0.012164 0.165167 -0.031615
					CHANNELS 3 Zrotation Yrotation Xrotation
					JOINT head
					{
						OFFSET 0.024783 0.160452 0.020737
						CHANNELS 3 Zrotation Yrotation Xrotation
						End Site
						{
							OFFSET 0.000000 0.000000 0.000000
						}
					}
				}
				JOINT left_collar
				{
					OFFSET 0.046364 0.084944 -0.007220
					CHANNELS 3 Zrotation Yrotation Xrotation
					JOINT left_shoulder
					{
						OFFSET 0.119239 0.057728 -0.015461
						CHANNELS 3 Zrotation Yrotation Xrotation
						JOINT left_elbow
						{
							OFFSET 0.254123 -0.072151 -0.042459
							CHANNELS 3 Zrotation Yrotation Xrotation
							JOINT left_wrist
							{
								OFFSET 0.251987 0.023221 -0.002472
								CHANNELS 3 Zrotation Yrotation Xrotation
								JOINT left_index_1
								{
									OFFSET 0.101902 -0.008688 0.019351
									CHANNELS 3 Zrotation Yrotation Xrotation
									JOINT left_index_2
									{
										OFFSET 0.030149 -0.011154 0.001151
										CHANNELS 3 Zrotation Yrotation Xrotation
										JOINT left_index_3
										{
											OFFSET 0.006504 -0.021577 -0.002433
											CHANNELS 3 Zrotation Yrotation Xrotation
											End Site
											{
												OFFSET 0.000000 0.000000 0.000000
											}
										}
									}
								}
								JOINT left_middle_1
								{
									OFFSET 0.109398 -0.006328 -0.003981
									CHANNELS 3 Zrotation Yrotation Xrotation
									JOINT left_middle_2
									{
										OFFSET 0.026472 -0.015218 -0.004641
										CHANNELS 3 Zrotation Yrotation Xrotation
										JOINT left_middle_3
										{
											OFFSET 0.005022 -0.023347 -0.001911
											CHANNELS 3 Zrotation Yrotation Xrotation
											End Site
											{
												OFFSET 0.000000 0.000000 0.000000
											}
										}
									}
								}
								JOINT left_pinky_1
								{
									OFFSET 0.084047 -0.014539 -0.043750
									CHANNELS 3 Zrotation Yrotation Xrotation
									JOINT left_pinky_2
									{
										OFFSET 0.012124 -0.014448 -0.005375
										CHANNELS 3 Zrotation Yrotation Xrotation
										JOINT left_pinky_3
										{
											OFFSET 0.003798 -0.018853 0.000167
											CHANNELS 3 Zrotation Yrotation Xrotation
											End Site
											{
												OFFSET 0.000000 0.000000 0.000000
											}
										}
									}
								}
								JOINT left_ring_1
								{
									OFFSET 0.097444 -0.009268 -0.027345
									CHANNELS 3 Zrotation Yrotation Xrotation
									JOINT left_ring_2
									{
										OFFSET 0.023561 -0.016057 -0.001895
										CHANNELS 3 Zrotation Yrotation Xrotation
										JOINT left_ring_3
										{
											OFFSET 0.004257 -0.023548 0.000814
											CHANNELS 3 Zrotation Yrotation Xrotation
											End Site
											{
												OFFSET 0.000000 0.000000 0.000000
											}
										}
									}
								}
								JOINT left_thumb_1
								{
									OFFSET 0.040636 -0.017977 0.025611
									CHANNELS 3 Zrotation Yrotation Xrotation
									JOINT left_thumb_2
									{
										OFFSET 0.021637 -0.017639 0.011623
										CHANNELS 3 Zrotation Yrotation Xrotation
										JOINT left_thumb_3
										{
											OFFSET 0.024002 -0.008356 0.006548
											CHANNELS 3 Zrotation Yrotation Xrotation
											End Site
											{
												OFFSET 0.000000 0.000000 0.000000
											}
										}
									}
								}
							}
						}
					}
				}
				JOINT right_collar
				{
					OFFSET -0.047695 0.084339 -0.013400
					CHANNELS 3 Zrotation Yrotation Xrotation
					JOINT right_shoulder
					{
						OFFSET -0.102578 0.053524 -0.012669
						CHANNELS 3 Zrotation Yrotation Xrotation
						JOINT right_elbow
						{
							OFFSET -0.271150 -0.036492 -0.026467
							CHANNELS 3 Zrotation Yrotation Xrotation
							JOINT right_wrist
							{
								OFFSET -0.249267 -0.004533 -0.015325
								CHANNELS 3 Zrotation Yrotation Xrotation
								JOINT right_index_1
								{
									OFFSET -0.099881 -0.011783 0.019600
									CHANNELS 3 Zrotation Yrotation Xrotation
									JOINT right_index_2
									{
										OFFSET -0.030148 -0.011154 0.001151
										CHANNELS 3 Zrotation Yrotation Xrotation
										JOINT right_index_3
										{
											OFFSET -0.006505 -0.021577 -0.002432
											CHANNELS 3 Zrotation Yrotation Xrotation
											End Site
											{
												OFFSET 0.000000 0.000000 0.000000
											}
										}
									}
								}
								JOINT right_middle_1
								{
									OFFSET -0.107376 -0.009422 -0.003734
									CHANNELS 3 Zrotation Yrotation Xrotation
									JOINT right_middle_2
									{
										OFFSET -0.026472 -0.015218 -0.004641
										CHANNELS 3 Zrotation Yrotation Xrotation
										JOINT right_middle_3
										{
											OFFSET -0.005022 -0.023347 -0.001911
											CHANNELS 3 Zrotation Yrotation Xrotation
											End Site
											{
												OFFSET 0.000000 0.000000 0.000000
											}
										}
									}
								}
								JOINT right_pinky_1
								{
									OFFSET -0.082027 -0.017634 -0.043503
									CHANNELS 3 Zrotation Yrotation Xrotation
									JOINT right_pinky_2
									{
										OFFSET -0.012123 -0.014448 -0.005374
										CHANNELS 3 Zrotation Yrotation Xrotation
										JOINT right_pinky_3
										{
											OFFSET -0.003798 -0.018852 0.000167
											CHANNELS 3 Zrotation Yrotation Xrotation
											End Site
											{
												OFFSET 0.000000 0.000000 0.000000
											}
										}
									}
								}
								JOINT right_ring_1
								{
									OFFSET -0.095423 -0.012362 -0.027099
									CHANNELS 3 Zrotation Yrotation Xrotation
									JOINT right_ring_2
									{
										OFFSET -0.023561 -0.016057 -0.001895
										CHANNELS 3 Zrotation Yrotation Xrotation
										JOINT right_ring_3
										{
											OFFSET -0.004257 -0.023548 0.000816
											CHANNELS 3 Zrotation Yrotation Xrotation
											End Site
											{
												OFFSET 0.000000 0.000000 0.000000
											}
										}
									}
								}
								JOINT right_thumb_1
								{
									OFFSET -0.038613 -0.021074 0.025861
									CHANNELS 3 Zrotation Yrotation Xrotation
									JOINT right_thumb_2
									{
										OFFSET -0.021636 -0.017639 0.011623
										CHANNELS 3 Zrotation Yrotation Xrotation
										JOINT right_thumb_3
										{
											OFFSET -0.024004 -0.008353 0.006547
											CHANNELS 3 Zrotation Yrotation Xrotation
											End Site
											{
												OFFSET 0.000000 0.000000 0.000000
											}
										}
									}
								}
							}
						}
					}
				}
			}
		}
	}
}
MOTION
Frames: 7
Frame Time: 0.050000
0.000027 0.693542 0.000587 -2.694774 -1.490129 -16.004700 16.736857 0.271530 -51.888504 -14.559539 2.571526 65.003651 5.904499 6.585895 -7.718996 0.000000 0.000000 0.000000 -18.872529 -1.286519 -49.224854 18.816643 -9.737966 65.424234 -10.328199 -19.387196 -0.030123 0.000000 0.000000 0.000000 3.239243 -2.607417 29.109324 -10.261413 -2.895401 -28.268009 9.909259 -1.383045 25.619293 0.934782 1.507772 -10.870336 0.000000 0.000000 0.000000 12.215147 5.484998 -1.131427 -0.614193 -12.464313 -3.688248 -3.818229 6.592282 -0.906768 5.645094 -2.804915 -10.628229 -6.453123 -0.093468 0.324270 18.624736 -1.543159 -2.896867 0.000000 0.000000 0.000000 -4.056661 -7.337131 -4.447282 7.430569 -1.381249 -8.433407 0.000000 0.000000 0.000000 17.561244 -14.386633 -17.982661 2.754515 -0.957603 -5.040441 0.000000 0.000000 0.000000 -2.815117 -7.953597 -5.391009 11.295374 -0.900793 -16.446148 0.000000 0.000000 0.000000 19.261299 24.988779 17.016865 -15.906491 -13.726937 1.169135 0.000000 0.000000 0.000000 -14.064602 -2.256508 0.516284 1.930477 4.506290 -0.772133 2.574919 0.510557 -0.154974 -4.595892 -1.525406 -9.315515 5.094217 -0.027144 0.240835 -23.889253 2.235555 -2.860307 0.000000 0.000000 0.000000 3.305278 8.180149 -4.916255 -18.544467 1.325180 -6.353602 0.000000 0.000000 0.000000 -18.615459 15.199710 -18.136579 -8.360953 -0.189434 0.154686 0.000000 0.000000 0.000000 1.457094 8.582001 -5.862634 -16.456589 -0.397160 -11.446254 0.000000 0.000000 0.000000 -18.868575 -23.256137 15.556575 16.399053 13.625200 1.481704 0.000000 0.000000 0.000000 
-0.000032 0.693542 -0.000732 -2.801620 -1.486224 -16.231554 16.743918 0.268752 -51.759647 -14.433297 2.464361 65.040829 5.800309 6.445266 -7.585802 0.000000 0.000000 0.000000 -18.693561 -1.219251 -49.052276 18.733357 -9.673318 65.411163 -10.306908 -19.370646 0.103496 0.000000 0.000000 0.000000 3.270983 -2.684537 29.873795 -10.278491 -2.980948 -28.594899 10.174621 -0.783663 25.305632 1.007725 1.463628 -10.570123 0.000000 0.000000 0.000000 12.173752 4.722165 -0.784602 -0.632423 -12.995626 -3.845720 -3.591799 7.241961 -0.969132 6.068931 -2.785498 -11.736857 -6.050767 -1.504096 -0.072042 17.846902 -1.453977 -3.133212 0.000000 0.000000 0.000000 -4.360759 -8.530645 -5.056131 7.761281 -1.405914 -8.759666 0.000000 0.000000 0.000000 16.858424 -15.109845 -19.505791 2.930352 -0.871423 -4.588237 0.000000 0.000000 0.000000 -2.835925 -9.181380 -6.178535 10.132245 -0.665259 -12.464218 0.000000 0.000000 0.000000 18.984581 24.100829 15.553907 -16.265888 -13.418577 1.354557 0.000000 0.000000 0.000000 -13.895605 -2.557286 0.323638 1.997629 4.228512 -0.740356 2.261242 0.484247 -0.137670 -4.670593 -0.704727 -10.252787 5.034378 1.048647 -0.071314 -24.347597 2.202290 -3.351745 0.000000 0.000000 0.000000 3.367941 9.206543 -5.449672 -18.896946 1.280937 -6.679496 0.000000 0.000000 0.000000 -18.730453 14.902248 -17.856648 -7.258731 -0.159345 -0.017266 0.000000 0.000000 0.000000 1.524852 8.053593 -5.513001 -16.165421 -0.364040 -11.563242 0.000000 0.000000 0.000000 -19.013674 -23.395154 15.484192 16.600526 13.196195 1.615906 0.000000 0.000000 0.000000 
-0.000032 0.693542 -0.000732 -2.823975 -1.490673 -16.230798 16.766680 0.280884 -51.753529 -14.432342 2.463394 65.034115 5.801757 6.433841 -7.606406 0.000000 0.000000 0.000000 -18.682274 -1.212523 -49.030457 18.755495 -9.683041 65.374682 -10.319370 -19.388284 0.083991 0.000000 0.000000 0.000000 3.224609 -2.634147 29.437415 -10.365469 -2.694622 -27.659776 10.208176 -0.933902 24.810186 1.038358 1.451445 -10.511085 0.000000 0.000000 0.000000 11.595175 4.087830 -0.630348 -0.936726 -12.698950 -3.774873 -2.148264 6.788988 -0.807719 6.173700 -3.389950 -14.774128 -4.860857 -1.267394 -0.065749 18.096377 -1.207867 -2.875796 0.000000 0.000000 0.000000 -4.676663 -10.640594 -6.069030 11.633441 -1.137229 -8.312319 0.000000 0.000000 0.000000 15.744640 -16.005562 -21.790766 4.048126 -0.149615 -1.227392 0.000000 0.000000 0.000000 -3.492749 -10.554685 -6.980148 12.880591 -0.359221 -13.329246 0.000000 0.000000 0.000000 19.074514 23.738512 14.318463 -16.253070 -12.061263 1.529141 0.000000 0.000000 0.000000 -13.455506 -2.406061 0.365613 2.426661 3.733937 -0.721073 0.457318 2.102448 -0.055117 -4.309316 -0.900923 -12.505046 5.040879 0.269264 0.166130 -25.400323 2.205933 -6.013127 0.000000 0.000000 0.000000 3.223458 9.736034 -5.701446 -19.905670 1.204182 -6.959655 0.000000 0.000000 0.000000 -17.706835 15.300561 -19.245881 -8.553726 -0.144746 -0.260718 0.000000 0.000000 0.000000 1.509043 8.728387 -5.984029 -16.338050 -0.360109 -12.048699 0.000000 0.000000 0.000000 -18.974476 -23.756666 15.536728 16.070248 14.773268 1.075066 0.000000 0.000000 0.000000 
-0.000032 0.693542 -0.000732 -2.867523 -1.489451 -16.438254 16.700659 0.248289 -51.559152 -14.303123 2.358808 65.126538 5.811395 6.376037 -7.714631 0.000000 0.000000 0.000000 -18.761637 -1.242163 -48.724638 18.962838 -9.798484 65.233515 -10.343775 -19.405056 -0.009674 0.000000 0.000000 0.000000 3.131767 -2.605273 29.309105 -10.325988 -2.646209 -27.450303 10.287421 -0.930157 25.029106 1.054402 1.421693 -10.333726 0.000000 0.000000 0.000000 10.600779 3.598425 -0.556107 -1.664048 -12.385935 -3.736732 0.690520 4.668942 -0.414010 7.315736 -3.867772 -19.507937 -4.846591 -1.102083 0.022452 14.983180 -1.160509 -6.988526 0.000000 0.000000 0.000000 -5.475882 -9.104556 -5.190009 12.140819 -1.550519 -12.799593 0.000000 0.000000 0.000000 12.791143 -15.490059 -21.796795 3.576910 -1.309528 -5.854876 0.000000 0.000000 0.000000 -4.697364 -11.392483 -7.272364 12.336178 -0.765505 -14.754072 0.000000 0.000000 0.000000 19.581120 24.392070 13.718526 -16.728065 -14.184425 1.093419 0.000000 0.000000 0.000000 -12.822381 -2.023878 0.437788 3.463856 3.174671 -0.758852 -2.612379 3.988363 -0.004466 -4.998263 -0.996909 -15.173312 4.585523 3.264563 -0.677175 -24.116356 1.754785 -3.305282 0.000000 0.000000 0.000000 2.667163 10.240692 -5.891134 -20.099308 1.092458 -7.377850 0.000000 0.000000 0.000000 -16.558592 15.916028 -20.936390 -8.761995 -0.095671 -0.593593 0.000000 0.000000 0.000000 2.213256 11.054401 -7.424961 -18.208250 -0.760599 -10.085883 0.000000 0.000000 0.000000 -18.763697 -22.345237 12.983967 16.223063 12.627898 1.463481 0.000000 0.000000 0.000000 
-0.000032 0.692253 -0.000732 -2.798011 -1.489965 -15.878750 16.734082 0.270852 -52.291089 -14.397103 2.452187 65.224971 5.847717 6.487986 -7.679915 0.000000 0.000000 0.000000 -18.996823 -1.347180 -49.473341 19.159590 -9.963119 65.295562 -10.399061 -19.535711 0.086456 0.000000 0.000000 0.000000 2.913094 -2.442668 27.958835 -10.264414 -2.534137 -26.980854 10.304243 -1.041549 25.796947 1.147944 1.547148 -11.217180 0.000000 0.000000 0.000000 9.062885 3.909043 -0.860184 -2.638987 -12.196810 -3.764372 5.355444 0.033435 0.056056 7.846574 -3.599033 -22.238705 -2.497934 -2.388537 -0.463806 10.565680 -1.301135 -8.588995 0.000000 0.000000 0.000000 -4.615586 -10.521989 -5.795186 7.797635 -2.718921 -17.135270 0.000000 0.000000 0.000000 12.004896 -16.567288 -23.668083 1.021188 -1.904006 -7.224451 0.000000 0.000000 0.000000 -5.724569 -13.368482 -8.215437 13.615611 -0.571913 -14.460848 0.000000 0.000000 0.000000 19.575807 23.631760 11.984416 -16.093477 -13.668264 0.889250 0.000000 0.000000 0.000000 -11.080958 -2.214940 0.181234 4.260297 2.986520 -0.823494 -7.292783 6.998757 -0.153539 -6.181607 -0.744348 -19.566075 3.140691 3.473353 -0.793143 -20.654047 1.529959 -7.214929 0.000000 0.000000 0.000000 3.156776 11.537182 -6.457001 -17.567993 1.114510 -10.052008 0.000000 0.000000 0.000000 -14.629637 17.121112 -23.709938 -7.389269 -0.280168 0.669524 0.000000 0.000000 0.000000 3.200658 12.247031 -8.000191 -17.959652 -0.561544 -12.456542 0.000000 0.000000 0.000000 -18.872574 -22.420398 11.968107 15.913233 12.758999 1.179046 0.000000 0.000000 0.000000 
-0.000032 0.692253 -0.002052 -2.913907 -1.497173 -16.453756 16.623652 0.214136 -51.823187 -14.124907 2.232058 65.383953 5.737645 6.141461 -7.815929 0.000000 0.000000 0.000000 -18.774348 -1.252058 -48.943363 19.039256 -9.875384 65.353121 -10.351186 -19.446364 0.116065 0.000000 0.000000 0.000000 2.791037 -2.466195 28.459248 -10.175372 -2.364082 -26.293865 10.349524 -1.039892 25.348150 1.176406 1.515088 -11.009450 0.000000 0.000000 0.000000 7.102951 4.027324 -1.117755 -3.914639 -11.708826 -3.728946 10.678766 -5.512287 0.124234 10.052796 -5.137701 -27.211917 -1.950076 -1.584502 -0.246179 7.834614 -1.173029 -8.208415 0.000000 0.000000 0.000000 -5.591079 -10.971991 -5.785196 9.709396 -1.788424 -13.908951 0.000000 0.000000 0.000000 10.860465 -16.733117 -24.115663 0.985269 -2.140099 -7.562658 0.000000 0.000000 0.000000 -6.468197 -13.132088 -7.758446 12.148346 -1.609114 -17.745173 0.000000 0.000000 0.000000 19.355536 23.314142 10.203322 -16.040377 -11.632168 1.010915 0.000000 0.000000 0.000000 -9.566937 -1.950362 0.136909 6.243979 2.560931 -0.988235 -13.724115 10.370815 -0.682642 -7.842343 -0.332442 -24.016259 1.556707 2.124610 -0.500173 -18.514383 1.229914 -7.469645 0.000000 0.000000 0.000000 3.179461 11.521382 -6.309201 -15.353002 1.379514 -13.023927 0.000000 0.000000 0.000000 -13.007975 16.604805 -23.173784 -8.896252 0.252943 -2.260296 0.000000 0.000000 0.000000 4.003641 11.851415 -7.534145 -17.735366 -0.224494 -15.060753 0.000000 0.000000 0.000000 -19.862412 -22.933351 11.160533 16.432315 12.513790 1.255497 0.000000 0.000000 0.000000 
-0.000032 0.690964 -0.002052 -2.884592 -1.538936 -16.321608 16.639481 0.236440 -52.120311 -14.156067 2.276376 65.586666 5.849956 6.198945 -8.090662 0.000000 0.000000 0.000000 -18.880646 -1.292962 -49.286022 19.160792 -9.981590 65.542961 -10.376376 -19.495367 0.119659 0.000000 0.000000 0.000000 2.550712 -2.357518 27.749069 -10.118954 -2.264099 -25.868586 10.419867 -1.027189 25.587217 1.371326 1.473536 -10.865212 0.000000 0.000000 0.000000 5.602402 3.865012 -1.222361 -6.457337 -11.374294 -3.860341 17.683361 -11.747820 -0.509373 11.076570 -3.826174 -28.655441 -1.524776 -3.389070 -0.660612 2.157673 -2.467421 -11.346594 0.000000 0.000000 0.000000 -6.264480 -14.737910 -7.264849 4.608661 -3.135204 -17.163954 0.000000 0.000000 0.000000 7.479946 -19.865875 -28.118489 4.424057 -0.829773 -3.373053 0.000000 0.000000 0.000000 -8.339942 -16.413519 -9.029937 11.541249 -1.977241 -18.310661 0.000000 0.000000 0.000000 19.433813 23.441691 9.630275 -16.438216 -13.419209 0.666990 0.000000 0.000000 0.000000 -7.722170 -2.172518 -0.161346 8.710484 3.299773 -1.296492 -21.497002 13.912909 -1.771647 -9.296247 -2.128791 -26.992910 0.578341 2.491489 -0.611330 -12.801521 1.987750 -12.102125 0.000000 0.000000 0.000000 3.983487 13.398223 -7.012527 -14.285393 1.640133 -14.866506 0.000000 0.000000 0.000000 -9.652254 18.916768 -26.551335 -6.997163 0.379047 -2.239113 0.000000 0.000000 0.000000 5.786053 14.218110 -8.480451 -16.240554 0.567445 -17.912731 0.000000 0.000000 0.000000 -19.343764 -22.488154 9.770608 15.652625 14.004706 0.539218 0.000000 0.000000 0.000000 
